<svg width="22" height="24" viewBox="0 0 22 24" fill="none" xmlns="http://www.w3.org/2000/svg">
<g id="Group 139">
<path
      id="Vector"
      d="M21.8397 16.9591L19.4204 12.6399V8.14286C19.4204 3.65287 15.6431 0 11.0001 0C6.35711 0 2.57976 3.65287 2.57976 8.14286V12.6399L0.160521 16.959C0.050808 17.1548 -0.00441067 17.3749 0.000275234 17.5976C0.00496114 17.8203 0.069391 18.038 0.187252 18.2293C0.305112 18.4207 0.47236 18.5792 0.672608 18.6892C0.872857 18.7993 1.09923 18.8571 1.32956 18.8571H6.146C6.13265 18.9984 6.12517 19.1411 6.12517 19.2857C6.12517 20.536 6.63877 21.7351 7.553 22.6192C8.46723 23.5033 9.70719 24 11.0001 24C12.293 24 13.533 23.5033 14.4472 22.6192C15.3614 21.7351 15.875 20.536 15.875 19.2857C15.875 19.1411 15.8675 18.9984 15.8542 18.8571H20.6706C20.9009 18.8571 21.1273 18.7992 21.3275 18.6892C21.5277 18.5791 21.6949 18.4206 21.8128 18.2293C21.9306 18.0379 21.995 17.8203 21.9997 17.5976C22.0044 17.3749 21.9492 17.1549 21.8395 16.9591H21.8397ZM14.1023 19.2857C14.1027 19.698 14.0152 20.106 13.8453 20.4841C13.6754 20.8623 13.4267 21.2025 13.1148 21.4835C12.8028 21.7646 12.4343 21.9804 12.0322 22.1176C11.6302 22.2548 11.2032 22.3104 10.7779 22.2808C10.3527 22.2513 9.93827 22.1373 9.56059 21.946C9.18292 21.7547 8.85008 21.4901 8.58285 21.1689C8.31562 20.8476 8.11974 20.4765 8.00743 20.0788C7.89512 19.681 7.8688 19.2652 7.93011 18.8571H14.0701C14.0914 18.9991 14.1022 19.1423 14.1023 19.2857ZM2.0736 17.1429L4.35246 13.0744V8.14286C4.35246 6.43789 5.05284 4.80276 6.29951 3.59717C7.54618 2.39158 9.23704 1.71429 11.0001 1.71429C12.7632 1.71429 14.454 2.39158 15.7007 3.59717C16.9474 4.80276 17.6477 6.43789 17.6477 8.14286V13.0744L19.9266 17.1429H2.0736Z"
      fill="currentColor"
    />
</g>
</svg>
